<svg width="130" height="130" viewBox="0 0 130 130" fill="none" xmlns="http://www.w3.org/2000/svg">
<path d="M65 44.6875C60.9826 44.6875 57.0554 45.8788 53.715 48.1108C50.3746 50.3427 47.7711 53.5151 46.2337 57.2267C44.6963 60.9384 44.294 65.0225 45.0778 68.9628C45.8616 72.903 47.7961 76.5224 50.6369 79.3631C53.4776 82.2039 57.097 84.1384 61.0372 84.9222C64.9775 85.706 69.0616 85.3037 72.7733 83.7663C76.4849 82.2289 79.6573 79.6254 81.8892 76.285C84.1212 72.9446 85.3125 69.0174 85.3125 65C85.3125 59.6128 83.1724 54.4462 79.3631 50.6369C75.5538 46.8276 70.3872 44.6875 65 44.6875ZM65 77.1875C62.5895 77.1875 60.2332 76.4727 58.229 75.1335C56.2248 73.7944 54.6627 71.8909 53.7402 69.664C52.8178 67.437 52.5764 64.9865 53.0467 62.6223C53.5169 60.2582 54.6777 58.0866 56.3821 56.3821C58.0866 54.6777 60.2582 53.5169 62.6223 53.0467C64.9865 52.5764 67.437 52.8178 69.664 53.7402C71.8909 54.6627 73.7944 56.2248 75.1335 58.229C76.4727 60.2332 77.1875 62.5895 77.1875 65C77.1875 68.2323 75.9035 71.3323 73.6179 73.6179C71.3323 75.9035 68.2323 77.1875 65 77.1875ZM121.875 28.4375H8.125C7.04756 28.4375 6.01425 28.8655 5.25238 29.6274C4.49051 30.3892 4.0625 31.4226 4.0625 32.5V97.5C4.0625 98.5774 4.49051 99.6108 5.25238 100.373C6.01425 101.134 7.04756 101.562 8.125 101.562H121.875C122.952 101.562 123.986 101.134 124.748 100.373C125.509 99.6108 125.938 98.5774 125.938 97.5V32.5C125.938 31.4226 125.509 30.3892 124.748 29.6274C123.986 28.8655 122.952 28.4375 121.875 28.4375ZM98.3379 93.4375H31.6621C30.2982 88.8245 27.8018 84.6261 24.4003 81.2247C20.9989 77.8232 16.8005 75.3268 12.1875 73.9629V56.0371C16.8005 54.6732 20.9989 52.1768 24.4003 48.7753C27.8018 45.3739 30.2982 41.1755 31.6621 36.5625H98.3379C99.7018 41.1755 102.198 45.3739 105.6 48.7753C109.001 52.1768 113.2 54.6732 117.812 56.0371V73.9629C113.2 75.3268 109.001 77.8232 105.6 81.2247C102.198 84.6261 99.7018 88.8245 98.3379 93.4375ZM117.812 47.4145C112.939 45.3196 109.055 41.4356 106.961 36.5625H117.812V47.4145ZM23.0395 36.5625C20.9446 41.4356 17.0606 45.3196 12.1875 47.4145V36.5625H23.0395ZM12.1875 82.5855C17.0606 84.6804 20.9446 88.5644 23.0395 93.4375H12.1875V82.5855ZM106.961 93.4375C109.055 88.5644 112.939 84.6804 117.812 82.5855V93.4375H106.961Z" fill="#E3AD30"/>
<path d="M64.487 73.5V71.466C63.629 71.3553 62.892 71.0583 62.276 70.575C61.66 70.0917 61.202 69.423 60.902 68.569L61.829 68.165C62.1177 68.9137 62.5143 69.4903 63.019 69.895C63.5237 70.2997 64.2077 70.5013 65.071 70.5C65.831 70.5 66.5257 70.3107 67.155 69.932C67.7843 69.5533 68.0987 68.9427 68.098 68.1C68.098 67.3887 67.8667 66.8173 67.404 66.386C66.9407 65.9547 66.0747 65.535 64.806 65.127C63.5133 64.7157 62.6037 64.2457 62.077 63.717C61.5503 63.1877 61.287 62.4987 61.287 61.65C61.287 60.7207 61.6433 59.9783 62.356 59.423C63.0687 58.8683 63.7787 58.5683 64.486 58.523V56.5H65.486V58.523C66.1787 58.5923 66.7733 58.7843 67.27 59.099C67.7667 59.4137 68.1787 59.8613 68.506 60.442L67.617 60.896C67.379 60.4653 67.051 60.1167 66.633 59.85C66.215 59.5833 65.683 59.45 65.037 59.45C64.265 59.45 63.6137 59.6543 63.083 60.063C62.5523 60.471 62.287 61 62.287 61.65C62.287 62.264 62.5047 62.7613 62.94 63.142C63.376 63.5233 64.2493 63.921 65.56 64.335C66.7733 64.719 67.6667 65.2127 68.24 65.816C68.812 66.4193 69.098 67.1767 69.098 68.088C69.098 69.092 68.7447 69.8897 68.038 70.481C67.3313 71.0723 66.4807 71.4043 65.486 71.477V73.5H64.487Z" fill="#E3AD30"/>
</svg>
