<svg width="130" height="130" viewBox="0 0 130 130" fill="none" xmlns="http://www.w3.org/2000/svg">
<g clip-path="url(#clip0_27_79)">
<path d="M69.0625 27.0833H36.5625C35.4851 27.0833 34.4518 27.5113 33.6899 28.2732C32.928 29.0351 32.5 30.0684 32.5 31.1458C32.5 32.2233 32.928 33.2566 33.6899 34.0184C34.4518 34.7803 35.4851 35.2083 36.5625 35.2083H69.0625C70.14 35.2083 71.1733 34.7803 71.9352 34.0184C72.697 33.2566 73.125 32.2233 73.125 31.1458C73.125 30.0684 72.697 29.0351 71.9352 28.2732C71.1733 27.5113 70.14 27.0833 69.0625 27.0833ZM73.125 50.1041C73.111 49.0311 72.6785 48.0059 71.9196 47.247C71.1608 46.4882 70.1356 46.0557 69.0625 46.0416H25.7292C24.6517 46.0416 23.6184 46.4697 22.8566 47.2315C22.0947 47.9934 21.6667 49.0267 21.6667 50.1041C21.6667 51.1816 22.0947 52.2149 22.8566 52.9768C23.6184 53.7386 24.6517 54.1666 25.7292 54.1666H69.0625C70.1356 54.1526 71.1608 53.7201 71.9196 52.9612C72.6785 52.2024 73.111 51.1772 73.125 50.1041ZM25.7292 65C24.6517 65 23.6184 65.428 22.8566 66.1899C22.0947 66.9517 21.6667 67.985 21.6667 69.0625C21.6667 70.1399 22.0947 71.1732 22.8566 71.9351C23.6184 72.697 24.6517 73.125 25.7292 73.125H55.5209C56.5983 73.125 57.6316 72.697 58.3935 71.9351C59.1553 71.1732 59.5834 70.1399 59.5834 69.0625C59.5834 67.985 59.1553 66.9517 58.3935 66.1899C57.6316 65.428 56.5983 65 55.5209 65H25.7292Z" fill="#E3AD30"/>
<path d="M61.2083 95.6042C61.1026 95.3619 60.9283 95.1559 60.7069 95.0116C60.4856 94.8672 60.2268 94.7907 59.9625 94.7917H13.5417C12.8234 94.7917 12.1345 94.5063 11.6266 93.9984C11.1187 93.4905 10.8333 92.8016 10.8333 92.0833V13.5417C10.8333 12.8234 11.1187 12.1345 11.6266 11.6266C12.1345 11.1187 12.8234 10.8333 13.5417 10.8333H83.9583C84.6766 10.8333 85.3655 11.1187 85.8734 11.6266C86.3813 12.1345 86.6667 12.8234 86.6667 13.5417V68.0875C86.6657 68.3518 86.7422 68.6106 86.8866 68.832C87.0309 69.0533 87.2369 69.2276 87.4792 69.3333C87.7309 69.4404 88.0085 69.4718 88.2778 69.4237C88.5471 69.3756 88.7967 69.2501 88.9958 69.0625L95.9292 62.1292C96.919 61.0912 97.48 59.7175 97.5 58.2833V10.8333C97.5 7.96016 96.3586 5.20465 94.327 3.17301C92.2953 1.14137 89.5398 0 86.6667 0L10.8333 0C7.96015 0 5.20465 1.14137 3.17301 3.17301C1.14137 5.20465 0 7.96016 0 10.8333L0 94.7917C0 97.6648 1.14137 100.42 3.17301 102.452C5.20465 104.484 7.96015 105.625 10.8333 105.625H53.4625C54.0416 105.629 54.6066 105.446 55.0746 105.105C55.5425 104.764 55.8888 104.282 56.0625 103.729C56.5609 102.037 57.4948 100.505 58.7708 99.2875L60.9375 97.1208C61.1251 96.9217 61.2506 96.6722 61.2987 96.4028C61.3468 96.1335 61.3154 95.856 61.2083 95.6042ZM65.325 109.037C65.1506 108.867 64.9333 108.747 64.6962 108.689C64.459 108.632 64.2108 108.64 63.9778 108.712C63.7447 108.784 63.5355 108.918 63.3722 109.099C63.2089 109.28 63.0976 109.502 63.05 109.742L59.5833 126.75C59.5043 127.187 59.532 127.637 59.6641 128.062C59.7961 128.486 60.0285 128.872 60.3417 129.188C60.5835 129.448 60.8771 129.654 61.2036 129.794C61.5301 129.934 61.8823 130.004 62.2375 130H62.7792L79.7875 126.588C80.0282 126.546 80.2524 126.438 80.4345 126.275C80.6165 126.112 80.7489 125.901 80.8167 125.667C80.9035 125.434 80.9189 125.181 80.861 124.94C80.8031 124.699 80.6745 124.48 80.4917 124.313L65.325 109.037ZM125.829 63.7542C124.515 62.4341 122.954 61.3867 121.234 60.6719C119.515 59.9572 117.671 59.5892 115.808 59.5892C113.946 59.5892 112.102 59.9572 110.382 60.6719C108.663 61.3867 107.101 62.4341 105.787 63.7542L70.4167 98.9625C70.1576 99.2057 69.9511 99.4993 69.8099 99.8254C69.6688 100.151 69.5959 100.503 69.5959 100.858C69.5959 101.214 69.6688 101.565 69.8099 101.891C69.9511 102.217 70.1576 102.511 70.4167 102.754L86.6667 119.004C86.9098 119.263 87.2035 119.47 87.5296 119.611C87.8556 119.752 88.2072 119.825 88.5625 119.825C88.9178 119.825 89.2693 119.752 89.5954 119.611C89.9215 119.47 90.2152 119.263 90.4583 119.004L125.721 83.7958C127.048 82.4893 128.104 80.9335 128.828 79.2176C129.552 77.5018 129.93 75.6598 129.94 73.7975C129.95 71.9352 129.592 70.0892 128.887 68.3657C128.181 66.6421 127.142 65.075 125.829 63.7542Z" fill="#E3AD30"/>
</g>
<defs>
<clipPath id="clip0_27_79">
<rect width="130" height="130" fill="white"/>
</clipPath>
</defs>
</svg>
