<svg width="130" height="130" viewBox="0 0 130 130" fill="none" xmlns="http://www.w3.org/2000/svg">
<path d="M108.333 16.25H21.6667C18.7935 16.25 16.038 17.3914 14.0063 19.423C11.9747 21.4547 10.8333 24.2102 10.8333 27.0833V37.9167C10.8447 39.8072 11.3507 41.6619 12.301 43.2963C13.2512 44.9308 14.6127 46.2881 16.25 47.2333V102.917C16.25 105.79 17.3914 108.545 19.423 110.577C21.4547 112.609 24.2102 113.75 27.0833 113.75H102.917C105.79 113.75 108.545 112.609 110.577 110.577C112.609 108.545 113.75 105.79 113.75 102.917V47.2333C115.387 46.2881 116.749 44.9308 117.699 43.2963C118.649 41.6619 119.155 39.8072 119.167 37.9167V27.0833C119.167 24.2102 118.025 21.4547 115.994 19.423C113.962 17.3914 111.206 16.25 108.333 16.25ZM21.6667 27.0833H108.333V37.9167H21.6667V27.0833ZM27.0833 102.917V48.75H102.917V102.917H27.0833Z" fill="#E3AD30"/>
<path d="M43.3333 59.5834H86.6667V70.4167H43.3333V59.5834Z" fill="#E3AD30"/>
</svg>
